Coordinates
version=1
nRows=27
nColumns=12
inDegrees=yes

Units are S.I. units (second, meters, Newtons, ...)
Angles are in degrees

endheader
time	SC_y	SC_z	SC_x	AC_y	AC_z	AC_x	GH_y	GH_z	GH_yy	EL_x	PS_y
       0.0              -24.73          23.58          32.56          58.84         -17.84         -4.119          135.2         -9.741         -27.21          7.643          121.3
   0.04818              -24.73          23.58          32.56          58.84         -17.84         -4.121          135.1         -9.731         -27.22          7.662          121.3
   0.09637              -24.73          23.58          32.57          58.84         -17.84         -4.122          135.1         -9.721         -27.23          7.681          121.3
    0.1446              -24.74          23.58          32.58          58.83         -17.84         -4.124          135.0          -9.71         -27.24          7.701          121.3
    0.1927              -24.74          23.58          32.59          58.83         -17.84         -4.125          135.0         -9.698         -27.26          7.723          121.3
    0.2409              -24.75          23.58           32.6          58.83         -17.84         -4.127          134.9         -9.685         -27.27          7.746          121.3
    0.2891              -24.75          23.59          32.61          58.82         -17.83         -4.129          134.9         -9.671         -27.29          7.771          121.3
    0.3373              -24.76          23.59          32.62          58.82         -17.83         -4.131          134.8         -9.657          -27.3          7.798          121.3
    0.3855              -24.77          23.59          32.63          58.81         -17.83         -4.133          134.8         -9.641         -27.32          7.826          121.3
    0.4337              -24.77          23.59          32.64          58.81         -17.83         -4.135          134.7         -9.625         -27.34          7.857          121.4
    0.4818              -24.78          23.59          32.65           58.8         -17.83         -4.137          134.6         -9.607         -27.36           7.89          121.4
      0.53              -24.79          23.59          32.66          58.79         -17.82          -4.14          134.5         -9.587         -27.38          7.925          121.4
    0.5782               -24.8          23.59          32.68          58.79         -17.82         -4.143          134.5         -9.567         -27.41          7.963          121.4
    0.6264              -24.81           23.6          32.69          58.78         -17.82         -4.146          134.4         -9.544         -27.43          8.004          121.4
    0.6746              -24.82           23.6          32.71          58.77         -17.81         -4.149          134.3          -9.52         -27.46          8.049          121.4
    0.7228              -24.83           23.6          32.73          58.76         -17.81         -4.153          134.2         -9.493         -27.49          8.097          121.4
     0.771              -24.84           23.6          32.75          58.75         -17.81         -4.157          134.0         -9.465         -27.52          8.149          121.4
    0.8191              -24.86           23.6          32.77          58.74          -17.8         -4.161          133.9         -9.433         -27.56          8.206          121.4
    0.8673              -24.87          23.61          32.79          58.73          -17.8         -4.165          133.8         -9.399         -27.59          8.269          121.4
    0.9155              -24.89          23.61          32.82          58.72         -17.79          -4.17          133.6         -9.362         -27.64          8.337          121.4
    0.9637               -24.9          23.61          32.85          58.71         -17.79         -4.176          133.5         -9.321         -27.68          8.412          121.4
     1.012              -24.92          23.61          32.88          58.69         -17.78         -4.182          133.3         -9.276         -27.73          8.494          121.4
      1.06              -24.94          23.62          32.91          58.68         -17.78         -4.189          133.1         -9.226         -27.79          8.586          121.4
     1.108              -24.97          23.62          32.95          58.66         -17.77         -4.196          132.9         -9.171         -27.85          8.687          121.4
     1.156              -24.99          23.63          32.99          58.64         -17.76         -4.205          132.6         -9.109         -27.92          8.799          121.4
     1.205              -25.02          23.63          33.04          58.62         -17.75         -4.214          132.4         -9.041          -28.0          8.924          121.4
     1.253              -25.05          23.64           33.1          58.59         -17.74         -4.224          132.0         -8.964         -28.09          9.064          121.4
